<svg width="97" height="28" viewBox="0 0 97 28" fill="none" xmlns="http://www.w3.org/2000/svg">
<path d="M9.63281 0C11.121 -4.93476e-08 12.5949 0.25803 13.9697 0.758789C15.3445 1.25955 16.5933 1.99374 17.6455 2.91895C18.6978 3.84422 19.5331 4.94243 20.1025 6.15137C20.672 7.36025 20.9648 8.65637 20.9648 9.96484C20.9648 11.2731 20.6719 12.5686 20.1025 13.7773C19.7822 14.4575 19.3743 15.1002 18.8945 15.6992L21.1016 16.8027V27.7441L9.18262 21.4922V27.7441L0 23.0547V6.25195L9.63281 11.0684V0Z" fill="#171717"/>
<path d="M36.3583 20.7441V8.28999H41.4211C44.1378 8.28999 45.7254 9.8247 45.7254 12.2238C45.7254 14.129 44.7022 15.5931 42.8324 16.0165L45.4431 20.7441H43.7144L41.2094 16.2105H37.8578V20.7441H36.3583ZM37.8578 14.8522H41.4211C43.1852 14.8522 44.1378 13.9173 44.1378 12.2591C44.1378 10.5832 43.1852 9.66594 41.4211 9.66594H37.8578V14.8522ZM47.0717 9.89527V8.20178H48.871V9.89527H47.0717ZM47.2481 20.7441V11.8181H48.6946V20.7441H47.2481ZM60.3834 11.6417C62.3415 11.6417 63.6292 12.9471 63.6292 15.1168V20.7441H62.165V15.3638C62.165 13.6703 61.3536 12.9823 60.1011 12.9823C58.8839 12.9823 57.9137 13.7762 57.8608 15.5049V20.7441H56.4319V15.4873C56.4319 13.8291 55.6734 12.9823 54.3856 12.9823C52.9744 12.9823 52.1276 13.8996 52.1276 15.4167V20.7441H50.6811V11.8181H51.9512L52.1629 12.8589C52.6392 12.0298 53.5918 11.6417 54.6149 11.6417C55.9556 11.6417 57.014 12.2238 57.5256 13.3704C58.0725 12.1709 59.2544 11.6417 60.3834 11.6417ZM73.4037 19.6152H73.7212V20.7441H72.8392C72.1336 20.7441 71.4809 20.4619 71.3927 19.5269C70.8634 20.3561 69.6992 20.9205 68.2703 20.9205C66.2769 20.9205 65.0421 19.8798 65.0421 18.1863C65.0421 16.7574 65.9241 15.6108 68.4643 15.6108H71.2868V15.1168C71.2868 13.5116 70.3519 12.8412 69.0288 12.8412C67.6705 12.8412 66.8238 13.4939 66.7532 14.5523H65.3596C65.4655 12.6648 67.0002 11.6417 69.0818 11.6417C71.3045 11.6417 72.751 12.8589 72.751 15.0992V18.9272C72.751 19.4917 72.8921 19.6152 73.4037 19.6152ZM71.2868 17.0926V16.6868H68.6055C67.0707 16.6868 66.5415 17.3219 66.5415 18.1686C66.5415 19.2094 67.3706 19.721 68.5173 19.721C69.9814 19.721 71.2868 18.9095 71.2868 17.0926ZM77.9856 20.7441V8.28999H79.4851V15.5226L85.818 8.28999H87.5997L82.8368 13.688L87.8643 20.7441H85.9768L81.7783 14.8522L79.4851 17.3748V20.7441H77.9856ZM88.5095 9.89527V8.20178H90.3089V9.89527H88.5095ZM88.6859 20.7441V11.8181H90.1325V20.7441H88.6859ZM94.8356 20.7441C93.5125 20.7441 92.6481 20.0209 92.6481 18.5038V13.1235H91.0429V11.8181H91.8896C92.4541 11.8181 92.6481 11.5711 92.6481 11.0243V9.48954H94.0947V11.8181H96.1939V13.1235H94.0947V18.3098C94.0947 18.9625 94.3063 19.4387 95.1707 19.4387H96.1762V20.7441H94.8356Z" fill="#171717"/>
</svg>
